<?xml version="1.0"?>
<svg width="1024" height="1024" xmlns="http://www.w3.org/2000/svg" xmlns:svg="http://www.w3.org/2000/svg" version="1.1">
 <!-- ベタ背景レイヤー -->
 <rect width="1024" height="1024" fill="#101110"/>
 <!-- 背景レイヤー（A02） -->
 <g class="layer">
  <title>Background</title>
  <path d="m-1,-1l1024,0l0,1024l-1024,0l0,-1024zm295,123l-26,1l-19,2l-20,4l-16,5l-16,7l-16,9l-12,9l-12,11l-7,7l-11,14l-6,11l-8,17l-4,11l-5,21l-2,21l0,471l2,22l5,24l7,19l9,17l9,12l7,9l16,16l15,11l18,10l15,6l24,7l21,3l10,1l480,0l23,-3l19,-4l21,-7l21,-11l16,-12l12,-11l9,-10l11,-16l10,-18l9,-27l3,-18l2,-25l0,-464l-3,-26l-7,-25l-7,-16l-9,-16l-9,-12l-3,-4l-2,0l-2,-4l-3,-3l-2,0l-2,-4l-14,-11l-15,-9l-16,-8l-15,-5l-22,-5l-28,-3l-455,-1z" fill="#000000" id="svg_2"/>
 </g>
 <!-- アイコンレイヤー（A01） -->
 <g class="layer">
  <title>Icon</title>
  <path d="m228,654l570,0l10,35l29,96l9,29l0,6l-667,0l1,-8l10,-34l29,-96l8,-27l1,-1zm11,14l-10,31l-6,19l-2,12l80,0l3,-12l9,-47l0,-3l-74,0zm88,0l-3,9l-8,40l-1,13l191,0l0,-62l-179,0zm192,0l0,62l191,0l0,-8l-10,-49l-2,-5l-179,0zm193,0l2,16l9,43l1,3l79,0l-1,-9l-10,-34l-6,-18l-1,-1l-73,0zm-495,74l-4,10l-13,44l-2,11l88,0l11,-53l1,-12l-81,0zm95,1l-4,16l-9,44l1,4l205,0l1,-1l0,-63l-194,0zm207,0l0,63l207,0l-6,-28l-2,-17l-4,-18l-195,0zm208,0l2,13l8,39l3,12l87,0l-1,-8l-15,-47l-3,-9l-81,0z" fill="#ffd026" id="svg_1"/>
  <path d="m613,545l126,0l18,18l7,8l10,10l-1,4l-5,6l-187,0l-6,-6l1,-4l29,-29l8,-7z" fill="#ffd026" id="svg_2"/>
  <path d="m287,545l125,0l13,12l23,23l-1,6l-5,5l-185,0l-6,-6l1,-4l7,-8l8,-7l7,-8l13,-13z" fill="#ffd026" id="svg_3"/>
  <path d="m584,216l183,0l5,6l0,5l-31,31l-3,4l-125,0l-27,-27l-6,-5l-3,-4l1,-4l6,-6z" fill="#ffd026" id="svg_4"/>
  <path d="m257,216l184,0l7,7l0,5l-12,11l-22,22l-128,0l-18,-18l-7,-8l-8,-8l1,-7l3,-4z" fill="#ffd026" id="svg_5"/>
  <path d="m578,406l7,1l22,22l0,112l-19,19l-8,7l-9,9l-6,-1l-7,-7l0,-144l12,-11l8,-7z" fill="#ffd026" id="svg_6"/>
  <path d="m442,406l6,1l7,7l8,7l4,3l0,142l-10,10l-4,-1l-10,-9l-25,-25l0,-111l12,-12l7,-8l5,-4z" fill="#ffd026" id="svg_7"/>
  <path d="m453,232l4,1l10,9l0,140l-13,12l-8,8l-4,-1l-10,-9l-7,-7l-7,-6l0,-112l35,-35z" fill="#ffcc26" id="svg_8"/>
  <path d="m243,231l6,1l33,33l0,115l-13,11l-11,11l-6,-1l-9,-9l-8,-7l-1,-1l0,-144l9,-9z" fill="#ffd026" id="svg_9"/>
  <path d="m253,405l4,1l14,12l11,11l0,114l-12,11l-23,23l-6,-1l-7,-7l0,-145l19,-19z" fill="#ffd026" id="svg_10"/>
  <path d="m768,406l6,1l12,12l5,4l0,145l-8,8l-6,-1l-15,-14l-19,-19l0,-113l15,-14l7,-7l3,-2z" fill="#ffd026" id="svg_11"/>
  <path d="m777,231l4,1l10,9l0,142l-18,18l-6,0l-17,-16l-7,-7l0,-113l34,-34z" fill="#ffd026" id="svg_12"/>
  <path d="m568,231l4,1l10,9l8,7l16,16l0,117l-14,12l-8,8l-7,0l-18,-18l0,-143l9,-9z" fill="#ffd026" id="svg_13"/>
  <path d="m499,319l27,0l2,2l0,40l-2,2l-27,0l-2,-3l0,-39l2,-2z" fill="#ffd026" id="svg_14"/>
  <path d="m499,448l27,0l2,2l0,39l-2,2l-26,0l-3,-2l0,-39l2,-2z" fill="#ffd026" id="svg_15"/>
 </g>
</svg>
